<?xml version="1.0" encoding="UTF-8"?>
<svg width="61px" height="43px" viewBox="0 0 61 43" version="1.1" xmlns="http://www.w3.org/2000/svg" xmlns:xlink="http://www.w3.org/1999/xlink">
    <title>C91E4202-D8B7-48D3-BEB7-5B16F0A44A0D</title>
    <defs>
        <rect id="path-1" x="0" y="0" width="1440" height="66"></rect>
        <filter x="-0.3%" y="-3.0%" width="100.6%" height="112.1%" filterUnits="objectBoundingBox" id="filter-2">
            <feOffset dx="0" dy="2" in="SourceAlpha" result="shadowOffsetOuter1"></feOffset>
            <feGaussianBlur stdDeviation="1" in="shadowOffsetOuter1" result="shadowBlurOuter1"></feGaussianBlur>
            <feColorMatrix values="0 0 0 0 0   0 0 0 0 0   0 0 0 0 0  0 0 0 0.18 0" type="matrix" in="shadowBlurOuter1"></feColorMatrix>
        </filter>
    </defs>
    <g id="Page-1" stroke="none" stroke-width="1" fill="none" fill-rule="evenodd">
        <g id="Desktop-HD" transform="translate(-250.000000, -12.000000)">
            <rect fill="#F2F4F8" x="0" y="0" width="1440" height="2764"></rect>
            <g id="Rectangle">
                <use fill="black" fill-opacity="1" filter="url(#filter-2)" xlink:href="#path-1"></use>
                <use fill="#FFFFFF" fill-rule="evenodd" xlink:href="#path-1"></use>
            </g>
            <g id="logo-1" transform="translate(250.000000, 12.000000)" fill="#000000" fill-rule="nonzero">
                <path d="M19.7863988,32.1935981 C21.4423987,35.7111979 23.9159986,39.0751977 27.1527984,42.2063975 C20.7319988,41.2687975 15.2799991,37.4599978 12.1143993,32.1135981 L19.7863988,32.1935981 Z M27.0295984,0.644799962 C20.8407988,1.57919991 15.5335991,5.21999969 12.3495993,10.3391994 L19.7887988,10.4207994 C21.4239987,6.97279958 23.8607986,3.69119978 27.0295984,0.644799962 Z M29.5223982,10.5247994 L29.6327982,0.415199975 C29.6295982,0.415199975 29.6159982,0.415199975 29.6103982,0.415199975 C26.0543984,3.51919979 23.3487986,6.87839959 21.5455987,10.4351994 L29.5223982,10.5247994 Z M12.3511993,13.6647992 L10.8823994,13.6511992 L9.43119944,13.6327992 L9.31679944,24.1327986 L3.4375998,13.5687992 L1.79599989,13.5519992 L0.16079999,13.5343992 L0,28.4735983 L1.46079991,28.4951983 L2.91519983,28.5087983 L3.03119982,17.7383989 L9.07999946,28.5759983 L10.6383994,28.5935983 L12.1927993,28.6119983 L12.3511993,13.6647992 Z M26.3231984,16.468799 L26.3359984,15.1367991 L26.3527984,13.8135992 L15.3503991,13.6959992 L15.1895991,28.6431983 L26.5335984,28.7615983 L26.5487984,27.4335984 L26.5615984,26.1087984 L18.3415989,26.0215984 L18.3823989,22.1215987 L25.6911985,22.1999987 L25.7039985,20.9183988 L25.7167985,19.6287988 L18.4095989,19.5519988 L18.4447989,16.383199 L26.3231984,16.468799 Z M41.2383975,24.8263985 L41.2383975,24.8263985 L39.1903977,13.9535992 L37.5239978,13.9359992 L35.8655979,13.9151992 L33.614398,24.8335985 L31.2343981,13.8679992 L29.6119982,13.8495992 L27.9887983,13.8303992 L31.9863981,28.8223983 L33.468798,28.8391983 L34.9559979,28.8575983 L37.4287978,17.109599 L39.7023976,28.9039983 L41.1927975,28.9255983 L42.6735975,28.9407983 L46.9943972,14.0375992 L45.4151973,14.0207992 L43.8367974,14.0039992 L41.2383975,24.8263985 Z M31.2375981,0.433599974 C31.2303981,0.433599974 31.2207981,0.433599974 31.2159981,0.433599974 L31.1071981,10.5415994 L39.0903977,10.6255994 C37.3583978,7.03039958 34.7287979,3.61519978 31.2375981,0.433599974 Z M48.2871971,10.7223994 C45.2119973,5.53919967 39.9855976,1.78719989 33.810398,0.717599957 C36.9199978,3.82879977 39.2847977,7.16079957 40.8471976,10.6439994 L48.2871971,10.7223994 Z M32.799998,42.2663975 C39.2359977,41.4671975 44.7655973,37.7759977 48.0535971,32.4943981 L40.3799976,32.4135981 C38.6503977,35.8959979 36.0991978,39.2039977 32.799998,42.2663975 Z M38.6119977,32.3959981 L30.8735982,32.3119981 L30.7687982,41.9655975 C34.174398,38.9999977 36.8071978,35.7807979 38.6119977,32.3959981 Z M59.2199965,21.9039987 C58.4895965,21.2599987 57.0479966,20.6807988 54.8767967,20.1775988 C53.3839968,19.8191988 52.4055969,19.5255988 51.9495969,19.2719989 C51.4839969,19.0271989 51.2503969,18.6775989 51.2559969,18.2271989 C51.2599969,17.611999 51.4895969,17.112799 51.9439969,16.771999 C52.3911969,16.440799 53.0151968,16.271199 53.8047968,16.281599 C54.7199967,16.288799 55.4599967,16.509599 56.0255967,16.927199 C56.5879966,17.346399 56.8943966,17.9095989 56.9383966,18.6231989 L59.9791964,18.6607989 C59.8823964,17.155999 59.3111965,15.967999 58.2703965,15.0751991 C57.2319966,14.1815992 55.8727967,13.7271992 54.1975968,13.7111992 C52.4111969,13.6911992 50.985597,14.1031992 49.925597,14.9327991 C48.8687971,15.7719991 48.3319971,16.931199 48.3175971,18.3735989 C48.3023971,19.6687988 48.6879971,20.6255988 49.4703971,21.2479987 C50.265597,21.8663987 51.8463969,22.4567987 54.2079968,23.0071986 C55.4919967,23.3063986 56.3279966,23.5999986 56.7223966,23.8607986 C57.1167966,24.1311986 57.3159966,24.5423985 57.3103966,25.1095985 C57.3047966,25.6807985 57.0183966,26.1167984 56.4559966,26.4343984 C55.8903967,26.7487984 55.1167967,26.9015984 54.1167968,26.8903984 C53.1495968,26.8791984 52.3943969,26.6599984 51.8591969,26.2263984 C51.3175969,25.7975985 51.040797,25.1895985 51.014397,24.3879985 L48.0071971,24.3575985 C48.0615971,25.9703985 48.6199971,27.2183984 49.675197,28.1055983 C50.729597,28.9999983 52.2039969,29.4495982 54.0911968,29.4671982 C55.9799967,29.4847982 57.4727966,29.0983983 58.5879965,28.2815983 C59.7047964,27.4671984 60.2647964,26.3615984 60.2791964,24.9567985 C60.3039964,23.5615986 59.9447964,22.5423987 59.2199965,21.9039987 Z M29.1855983,41.9375975 L29.2903983,32.2943981 L21.5519987,32.2111981 C23.2903986,35.6311979 25.8495985,38.9047977 29.1855983,41.9375975 Z" id="Shape"></path>
            </g>
        </g>
    </g>
</svg>